<svg width="32" height="32" viewBox="0 0 32 32" fill="none" xmlns="http://www.w3.org/2000/svg">
  <defs>
    <linearGradient id="bookGradient" x1="0%" y1="0%" x2="100%" y2="100%">
      <stop offset="0%" style="stop-color:#1e3a8a;stop-opacity:1" />
      <stop offset="50%" style="stop-color:#3b82f6;stop-opacity:1" />
      <stop offset="100%" style="stop-color:#60a5fa;stop-opacity:1" />
    </linearGradient>
    <linearGradient id="goldGradient" x1="0%" y1="0%" x2="100%" y2="100%">
      <stop offset="0%" style="stop-color:#f59e0b;stop-opacity:1" />
      <stop offset="50%" style="stop-color:#fbbf24;stop-opacity:1" />
      <stop offset="100%" style="stop-color:#fcd34d;stop-opacity:1" />
    </linearGradient>
    <linearGradient id="pageGradient" x1="0%" y1="0%" x2="100%" y2="100%">
      <stop offset="0%" style="stop-color:#FFFEF7;stop-opacity:1" />
      <stop offset="100%" style="stop-color:#F5F5DC;stop-opacity:1" />
    </linearGradient>
  </defs>
  
  <!-- Book spine -->
  <rect x="2" y="8" width="3" height="16" fill="url(#bookGradient)" rx="1"/>
  
  <!-- Left page -->
  <path d="M5 8 Q6 6 8 6 L14 6 Q15 6 15 8 L15 22 Q15 24 14 24 L8 24 Q6 26 5 24 Z" 
        fill="url(#pageGradient)" stroke="url(#goldGradient)" stroke-width="0.5"/>
  
  <!-- Right page -->
  <path d="M17 8 Q17 6 18 6 L24 6 Q26 6 27 8 L27 24 Q26 26 24 24 L18 24 Q17 24 17 22 Z" 
        fill="url(#pageGradient)" stroke="url(#goldGradient)" stroke-width="0.5"/>
  
  <!-- Book binding center -->
  <rect x="15" y="7" width="2" height="18" fill="url(#bookGradient)" rx="0.5"/>
  
  <!-- Simple decorative elements -->
  <line x1="8" y1="10" x2="12" y2="10" stroke="url(#goldGradient)" stroke-width="0.5" opacity="0.6"/>
  <line x1="8" y1="12" x2="13" y2="12" stroke="url(#goldGradient)" stroke-width="0.5" opacity="0.6"/>
  <line x1="8" y1="14" x2="11" y2="14" stroke="url(#goldGradient)" stroke-width="0.5" opacity="0.6"/>
  
  <line x1="19" y1="10" x2="23" y2="10" stroke="url(#goldGradient)" stroke-width="0.5" opacity="0.6"/>
  <line x1="19" y1="12" x2="22" y2="12" stroke="url(#goldGradient)" stroke-width="0.5" opacity="0.6"/>
  <line x1="19" y1="14" x2="24" y2="14" stroke="url(#goldGradient)" stroke-width="0.5" opacity="0.6"/>
  
  <!-- Small decorative dots -->
  <circle cx="10" cy="18" r="1" fill="url(#goldGradient)" opacity="0.7"/>
  <circle cx="21" cy="18" r="1" fill="url(#goldGradient)" opacity="0.7"/>
</svg>
