<svg width="16" height="16" viewBox="0 0 16 16" fill="none" xmlns="http://www.w3.org/2000/svg">
  <defs>
    <linearGradient id="bookGradient" x1="0%" y1="0%" x2="100%" y2="100%">
      <stop offset="0%" style="stop-color:#8B0000;stop-opacity:1" />
      <stop offset="50%" style="stop-color:#B22222;stop-opacity:1" />
      <stop offset="100%" style="stop-color:#DC143C;stop-opacity:1" />
    </linearGradient>
    <linearGradient id="goldGradient" x1="0%" y1="0%" x2="100%" y2="100%">
      <stop offset="0%" style="stop-color:#FFD700;stop-opacity:1" />
      <stop offset="50%" style="stop-color:#FFA500;stop-opacity:1" />
      <stop offset="100%" style="stop-color:#FF8C00;stop-opacity:1" />
    </linearGradient>
    <linearGradient id="pageGradient" x1="0%" y1="0%" x2="100%" y2="100%">
      <stop offset="0%" style="stop-color:#FFFEF7;stop-opacity:1" />
      <stop offset="100%" style="stop-color:#F5F5DC;stop-opacity:1" />
    </linearGradient>
  </defs>
  
  <!-- Book spine -->
  <rect x="1" y="4" width="1.5" height="8" fill="url(#bookGradient)" rx="0.5"/>
  
  <!-- Left page -->
  <path d="M2.5 4 Q3 3 4 3 L7 3 Q7.5 3 7.5 4 L7.5 11 Q7.5 12 7 12 L4 12 Q3 13 2.5 12 Z" 
        fill="url(#pageGradient)" stroke="url(#goldGradient)" stroke-width="0.3"/>
  
  <!-- Right page -->
  <path d="M8.5 4 Q8.5 3 9 3 L12 3 Q13 3 13.5 4 L13.5 12 Q13 13 12 12 L9 12 Q8.5 12 8.5 11 Z" 
        fill="url(#pageGradient)" stroke="url(#goldGradient)" stroke-width="0.3"/>
  
  <!-- Book binding center -->
  <rect x="7.5" y="3.5" width="1" height="9" fill="url(#bookGradient)" rx="0.25"/>
  
  <!-- Simple lines -->
  <line x1="4" y1="5" x2="6" y2="5" stroke="url(#goldGradient)" stroke-width="0.3" opacity="0.6"/>
  <line x1="4" y1="6" x2="6.5" y2="6" stroke="url(#goldGradient)" stroke-width="0.3" opacity="0.6"/>
  
  <line x1="9.5" y1="5" x2="11.5" y2="5" stroke="url(#goldGradient)" stroke-width="0.3" opacity="0.6"/>
  <line x1="9.5" y1="6" x2="11" y2="6" stroke="url(#goldGradient)" stroke-width="0.3" opacity="0.6"/>
  
  <!-- Dots -->
  <circle cx="5" cy="9" r="0.5" fill="url(#goldGradient)" opacity="0.7"/>
  <circle cx="10.5" cy="9" r="0.5" fill="url(#goldGradient)" opacity="0.7"/>
</svg>
