<svg width="120" height="80" viewBox="0 0 120 80" fill="none" xmlns="http://www.w3.org/2000/svg">
  <!-- Background gradient for depth -->
  <defs>
    <linearGradient id="bookGradient" x1="0%" y1="0%" x2="100%" y2="100%">
      <stop offset="0%" style="stop-color:#8B0000;stop-opacity:1" />
      <stop offset="50%" style="stop-color:#B22222;stop-opacity:1" />
      <stop offset="100%" style="stop-color:#DC143C;stop-opacity:1" />
    </linearGradient>
    <linearGradient id="goldGradient" x1="0%" y1="0%" x2="100%" y2="100%">
      <stop offset="0%" style="stop-color:#FFD700;stop-opacity:1" />
      <stop offset="50%" style="stop-color:#FFA500;stop-opacity:1" />
      <stop offset="100%" style="stop-color:#FF8C00;stop-opacity:1" />
    </linearGradient>
    <linearGradient id="pageGradient" x1="0%" y1="0%" x2="100%" y2="100%">
      <stop offset="0%" style="stop-color:#FFFEF7;stop-opacity:1" />
      <stop offset="100%" style="stop-color:#F5F5DC;stop-opacity:1" />
    </linearGradient>
  </defs>
  
  <!-- Book spine/binding -->
  <rect x="10" y="20" width="8" height="40" fill="url(#bookGradient)" rx="2"/>
  
  <!-- Left page -->
  <path d="M18 20 Q20 15 25 15 L50 15 Q55 15 55 20 L55 55 Q55 60 50 60 L25 60 Q20 65 18 60 Z" 
        fill="url(#pageGradient)" stroke="url(#goldGradient)" stroke-width="1"/>
  
  <!-- Right page -->
  <path d="M65 20 Q65 15 70 15 L95 15 Q100 15 102 20 L102 60 Q100 65 95 60 L70 60 Q65 60 65 55 Z" 
        fill="url(#pageGradient)" stroke="url(#goldGradient)" stroke-width="1"/>
  
  <!-- Book binding center -->
  <rect x="55" y="18" width="10" height="44" fill="url(#bookGradient)" rx="1"/>
  
  <!-- Decorative elements on pages -->
  <!-- Left page lines -->
  <line x1="25" y1="25" x2="45" y2="25" stroke="url(#goldGradient)" stroke-width="1" opacity="0.6"/>
  <line x1="25" y1="30" x2="48" y2="30" stroke="url(#goldGradient)" stroke-width="1" opacity="0.6"/>
  <line x1="25" y1="35" x2="42" y2="35" stroke="url(#goldGradient)" stroke-width="1" opacity="0.6"/>
  <line x1="25" y1="40" x2="46" y2="40" stroke="url(#goldGradient)" stroke-width="1" opacity="0.6"/>
  
  <!-- Right page lines -->
  <line x1="72" y1="25" x2="92" y2="25" stroke="url(#goldGradient)" stroke-width="1" opacity="0.6"/>
  <line x1="72" y1="30" x2="89" y2="30" stroke="url(#goldGradient)" stroke-width="1" opacity="0.6"/>
  <line x1="72" y1="35" x2="95" y2="35" stroke="url(#goldGradient)" stroke-width="1" opacity="0.6"/>
  <line x1="72" y1="40" x2="88" y2="40" stroke="url(#goldGradient)" stroke-width="1" opacity="0.6"/>
  
  <!-- Decorative flourish -->
  <circle cx="35" cy="50" r="2" fill="url(#goldGradient)" opacity="0.7"/>
  <circle cx="82" cy="50" r="2" fill="url(#goldGradient)" opacity="0.7"/>
  
  <!-- Shadow effect -->
  <ellipse cx="60" cy="70" rx="35" ry="4" fill="#000000" opacity="0.1"/>
</svg>
