<svg width="64" height="64" viewBox="0 0 64 64" fill="none" xmlns="http://www.w3.org/2000/svg">
  <!-- Roman coin-style background -->
  <circle cx="32" cy="32" r="30" fill="url(#goldGradient)" stroke="#8B4513" stroke-width="2"/>
  
  <!-- Decorative border -->
  <circle cx="32" cy="32" r="28" fill="none" stroke="#D4AF37" stroke-width="1" stroke-dasharray="2,1"/>
  
  <!-- Head/face -->
  <ellipse cx="32" cy="30" rx="12" ry="14" fill="#FDBCB4"/>
  
  <!-- Hair (Roman style) -->
  <path d="M20 22 Q32 18 44 22 Q42 26 32 24 Q22 26 20 22" fill="#8B4513"/>
  
  <!-- Laurel wreath -->
  <path d="M22 20 Q32 16 42 20" stroke="#228B22" stroke-width="2" fill="none"/>
  <circle cx="24" cy="19" r="1" fill="#228B22"/>
  <circle cx="32" cy="17" r="1" fill="#228B22"/>
  <circle cx="40" cy="19" r="1" fill="#228B22"/>
  
  <!-- Eyes -->
  <circle cx="28" cy="28" r="2" fill="white"/>
  <circle cx="36" cy="28" r="2" fill="white"/>
  <circle cx="28" cy="28" r="1" fill="#4A4A4A"/>
  <circle cx="36" cy="28" r="1" fill="#4A4A4A"/>
  
  <!-- Nose -->
  <path d="M32 30 L32 34 M30 32 L34 32" stroke="#E6A4A4" stroke-width="1" fill="none"/>
  
  <!-- Mouth -->
  <path d="M29 36 Q32 38 35 36" stroke="#CD5C5C" stroke-width="1.5" fill="none"/>
  
  <!-- Roman toga/clothing -->
  <path d="M20 44 Q32 42 44 44 Q42 52 32 50 Q22 52 20 44" fill="white" stroke="#E0E0E0" stroke-width="1"/>
  
  <!-- Toga purple stripe (status symbol) -->
  <path d="M26 46 Q32 44 38 46" stroke="#8B008B" stroke-width="2"/>
  
  <!-- Roman inscription around the border -->
  <defs>
    <linearGradient id="goldGradient" x1="0%" y1="0%" x2="100%" y2="100%">
      <stop offset="0%" style="stop-color:#FFD700;stop-opacity:1" />
      <stop offset="50%" style="stop-color:#FFA500;stop-opacity:1" />
      <stop offset="100%" style="stop-color:#FF8C00;stop-opacity:1" />
    </linearGradient>
  </defs>
</svg>
